<svg id="Layer_1" data-name="Layer 1" xmlns="http://www.w3.org/2000/svg" viewBox="0 0 16 16"><defs><style>.cls-1{fill:#004c6d;stroke:#004c6d;stroke-miterlimit:10;stroke-width:0.25px;}</style></defs><title>Elevat Logo SVG</title><path class="cls-1" d="M9.68,11.65H9.1l-2-3.21L5.19,5.27h0L3.5,8H4.86a.29.29,0,0,1,.3.19A.25.25,0,0,1,5,8.44H3.22L1.53,11.2H4.9a.26.26,0,0,1,.28.23.24.24,0,0,1-.19.22H.68L1,11.2l1.7-2.76L2.93,8l2-3.19.28-.46h0l.28.45L7.71,8.44l2,3.2Z"/><path class="cls-1" d="M6.32,4.35H6.9l2,3.21,1.94,3.17h0L12.5,8H11.14a.29.29,0,0,1-.3-.19A.25.25,0,0,1,11,7.56h1.75L14.47,4.8H11.1a.26.26,0,0,1-.28-.23A.24.24,0,0,1,11,4.35h4.31l-.27.44-1.7,2.76L13.07,8l-2,3.19-.28.46h0l-.28-.45L8.29,7.56l-2-3.2Z"/></svg>